{"glyphs":{"0":{"ha":847,"x_min":42,"x_max":806,"o":"m 806 667 l 597 667 l 597 750 l 806 750 l 806 667 m 794 889 l 53 889 q 181 972 89 972 l 667 972 q 794 889 758 972 m 806 556 l 597 556 l 597 639 l 806 639 l 806 556 m 806 778 l 42 778 l 42 833 q 44 861 42 847 l 803 861 q 806 833 806 847 l 806 778 m 806 444 l 597 444 l 597 528 l 806 528 l 806 444 m 806 333 l 597 333 l 597 417 l 806 417 l 806 333 m 806 222 l 597 222 l 597 306 l 806 306 l 806 222 m 250 667 l 42 667 l 42 750 l 250 750 l 250 667 m 250 556 l 42 556 l 42 639 l 250 639 l 250 556 m 250 444 l 42 444 l 42 528 l 250 528 l 250 444 m 806 139 q 803 111 806 125 l 44 111 q 42 139 42 125 l 42 194 l 806 194 l 806 139 m 250 333 l 42 333 l 42 417 l 250 417 l 250 333 m 794 83 q 667 0 758 0 l 181 0 q 53 83 89 0 l 794 83 m 250 222 l 42 222 l 42 306 l 250 306 l 250 222 z "},"1":{"ha":431,"x_min":42,"x_max":389,"o":"m 389 889 l 42 889 l 42 972 l 389 972 l 389 889 m 389 778 l 42 778 l 42 861 l 389 861 l 389 778 m 389 667 l 181 667 l 181 750 l 389 750 l 389 667 m 389 556 l 181 556 l 181 639 l 389 639 l 389 556 m 389 444 l 181 444 l 181 528 l 389 528 l 389 444 m 389 333 l 181 333 l 181 417 l 389 417 l 389 333 m 389 222 l 181 222 l 181 306 l 389 306 l 389 222 m 389 111 l 181 111 l 181 194 l 389 194 l 389 111 m 389 0 l 181 0 l 181 83 l 389 83 l 389 0 z "},"2":{"ha":847,"x_min":42,"x_max":806,"o":"m 806 667 l 597 667 l 597 750 l 806 750 l 806 667 m 794 889 l 42 889 l 42 972 l 667 972 q 794 889 758 972 m 806 778 l 42 778 l 42 861 l 803 861 q 806 833 806 847 l 806 778 m 806 583 q 803 556 806 569 l 53 556 q 181 639 89 639 l 806 639 l 806 583 m 794 528 q 667 444 758 444 l 42 444 l 42 500 q 44 528 42 514 l 794 528 m 806 111 l 42 111 l 42 194 l 806 194 l 806 111 m 250 333 l 42 333 l 42 417 l 250 417 l 250 333 m 806 0 l 42 0 l 42 83 l 806 83 l 806 0 m 250 222 l 42 222 l 42 306 l 250 306 l 250 222 z "},"3":{"ha":847,"x_min":42,"x_max":806,"o":"m 806 694 q 803 667 806 681 l 597 667 l 597 750 l 806 750 l 806 694 m 794 889 l 42 889 l 42 972 l 667 972 q 794 889 758 972 m 806 778 l 42 778 l 42 861 l 803 861 q 806 833 806 847 l 806 778 m 794 639 q 667 556 758 556 l 319 556 l 319 639 l 794 639 m 806 333 l 597 333 l 597 417 l 803 417 q 806 389 806 403 l 806 333 m 794 444 l 319 444 l 319 528 l 667 528 q 794 444 758 528 m 806 222 l 597 222 l 597 306 l 806 306 l 806 222 m 806 139 q 803 111 806 125 l 42 111 l 42 194 l 806 194 l 806 139 m 794 83 q 667 0 758 0 l 42 0 l 42 83 l 794 83 z "},"4":{"ha":847,"x_min":42,"x_max":806,"o":"m 736 889 l 528 889 l 528 972 l 736 972 l 736 889 m 736 778 l 528 778 l 528 861 l 736 861 l 736 778 m 736 667 l 528 667 l 528 750 l 736 750 l 736 667 m 250 889 l 42 889 l 42 972 l 250 972 l 250 889 m 806 556 l 42 556 l 42 639 l 806 639 l 806 556 m 736 333 l 528 333 l 528 417 l 736 417 l 736 333 m 250 778 l 42 778 l 42 861 l 250 861 l 250 778 m 806 444 l 42 444 l 42 528 l 806 528 l 806 444 m 736 222 l 528 222 l 528 306 l 736 306 l 736 222 m 250 667 l 42 667 l 42 750 l 250 750 l 250 667 m 736 111 l 528 111 l 528 194 l 736 194 l 736 111 m 736 0 l 528 0 l 528 83 l 736 83 l 736 0 z "},"5":{"ha":847,"x_min":42,"x_max":806,"o":"m 806 889 l 42 889 l 42 972 l 806 972 l 806 889 m 806 778 l 42 778 l 42 861 l 806 861 l 806 778 m 806 333 l 597 333 l 597 417 l 806 417 l 806 333 m 794 556 l 44 556 q 42 583 42 569 l 42 639 l 667 639 q 794 556 758 639 m 806 222 l 597 222 l 597 306 l 806 306 l 806 222 m 806 444 l 181 444 q 53 528 89 444 l 803 528 q 806 500 806 514 l 806 444 m 250 667 l 42 667 l 42 750 l 250 750 l 250 667 m 806 139 q 803 111 806 125 l 42 111 l 42 194 l 806 194 l 806 139 m 794 83 q 667 0 758 0 l 42 0 l 42 83 l 794 83 z "},"6":{"ha":847,"x_min":42,"x_max":806,"o":"m 736 889 l 53 889 q 181 972 89 972 l 736 972 l 736 889 m 736 778 l 42 778 l 42 833 q 44 861 42 847 l 736 861 l 736 778 m 806 333 l 597 333 l 597 417 l 806 417 l 806 333 m 794 556 l 42 556 l 42 639 l 667 639 q 794 556 758 639 m 806 222 l 597 222 l 597 306 l 806 306 l 806 222 m 806 444 l 42 444 l 42 528 l 803 528 q 806 500 806 514 l 806 444 m 250 667 l 42 667 l 42 750 l 250 750 l 250 667 m 806 139 q 803 111 806 125 l 44 111 q 42 139 42 125 l 42 194 l 806 194 l 806 139 m 250 333 l 42 333 l 42 417 l 250 417 l 250 333 m 794 83 q 667 0 758 0 l 181 0 q 53 83 89 0 l 794 83 m 250 222 l 42 222 l 42 306 l 250 306 l 250 222 z "},"7":{"ha":847,"x_min":42,"x_max":806,"o":"m 806 667 l 597 667 l 597 750 l 806 750 l 806 667 m 794 889 l 42 889 l 42 972 l 667 972 q 794 889 758 972 m 806 556 l 597 556 l 597 639 l 806 639 l 806 556 m 806 778 l 42 778 l 42 861 l 803 861 q 806 833 806 847 l 806 778 m 806 444 l 597 444 l 597 528 l 806 528 l 806 444 m 806 333 l 597 333 l 597 417 l 806 417 l 806 333 m 806 222 l 597 222 l 597 306 l 806 306 l 806 222 m 806 111 l 597 111 l 597 194 l 806 194 l 806 111 m 806 0 l 597 0 l 597 83 l 806 83 l 806 0 z "},"8":{"ha":847,"x_min":42,"x_max":806,"o":"m 806 694 q 803 667 806 681 l 597 667 l 597 750 l 806 750 l 806 694 m 794 889 l 53 889 q 181 972 89 972 l 667 972 q 794 889 758 972 m 806 778 l 42 778 l 42 833 q 44 861 42 847 l 803 861 q 806 833 806 847 l 806 778 m 806 333 l 597 333 l 597 417 l 803 417 q 806 389 806 403 l 806 333 m 794 639 q 667 556 758 556 l 181 556 q 53 639 89 556 l 794 639 m 806 222 l 597 222 l 597 306 l 806 306 l 806 222 m 794 444 l 53 444 q 181 528 89 528 l 667 528 q 794 444 758 528 m 250 667 l 44 667 q 42 694 42 681 l 42 750 l 250 750 l 250 667 m 806 139 q 803 111 806 125 l 44 111 q 42 139 42 125 l 42 194 l 806 194 l 806 139 m 250 333 l 42 333 l 42 389 q 44 417 42 403 l 250 417 l 250 333 m 794 83 q 667 0 758 0 l 181 0 q 53 83 89 0 l 794 83 m 250 222 l 42 222 l 42 306 l 250 306 l 250 222 z "},"9":{"ha":847,"x_min":42,"x_max":806,"o":"m 806 667 l 597 667 l 597 750 l 806 750 l 806 667 m 794 889 l 53 889 q 181 972 89 972 l 667 972 q 794 889 758 972 m 806 556 l 597 556 l 597 639 l 806 639 l 806 556 m 806 778 l 42 778 l 42 833 q 44 861 42 847 l 803 861 q 806 833 806 847 l 806 778 m 806 222 l 597 222 l 597 306 l 806 306 l 806 222 m 806 444 l 44 444 q 42 472 42 458 l 42 528 l 806 528 l 806 444 m 250 667 l 42 667 l 42 750 l 250 750 l 250 667 m 806 333 l 181 333 q 53 417 89 333 l 806 417 l 806 333 m 250 556 l 42 556 l 42 639 l 250 639 l 250 556 m 806 139 q 803 111 806 125 l 111 111 l 111 194 l 806 194 l 806 139 m 794 83 q 667 0 758 0 l 111 0 l 111 83 l 794 83 z "}," ":{"ha":347,"x_min":0,"x_max":0,"o":""},"!":{"ha":292,"x_min":42,"x_max":250,"o":"m 250 889 l 42 889 l 42 972 l 250 972 l 250 889 m 250 778 l 42 778 l 42 861 l 250 861 l 250 778 m 250 667 l 42 667 l 42 750 l 250 750 l 250 667 m 250 556 l 42 556 l 42 639 l 250 639 l 250 556 m 250 444 l 42 444 l 42 528 l 250 528 l 250 444 m 250 333 l 42 333 l 42 417 l 250 417 l 250 333 m 250 111 l 42 111 l 42 194 l 250 194 l 250 111 m 250 0 l 42 0 l 42 83 l 250 83 l 250 0 z "},"\"":{"ha":556,"x_min":42,"x_max":514,"o":"m 514 889 l 306 889 l 306 972 l 514 972 l 514 889 m 514 778 l 306 778 l 306 861 l 514 861 l 514 778 m 514 667 l 410 667 l 410 750 l 514 750 l 514 667 m 250 889 l 42 889 l 42 972 l 250 972 l 250 889 m 250 778 l 42 778 l 42 861 l 250 861 l 250 778 m 250 667 l 146 667 l 146 750 l 250 750 l 250 667 z "},"'":{"ha":292,"x_min":42,"x_max":250,"o":"m 250 889 l 42 889 l 42 972 l 250 972 l 250 889 m 250 778 l 42 778 l 42 861 l 250 861 l 250 778 m 250 667 l 146 667 l 146 750 l 250 750 l 250 667 z "},",":{"ha":292,"x_min":42,"x_max":250,"o":"m 250 111 l 42 111 l 42 194 l 250 194 l 250 111 m 250 0 l 42 0 l 42 83 l 250 83 l 250 0 m 250 -111 l 146 -111 l 146 -28 l 250 -28 l 250 -111 z "},".":{"ha":292,"x_min":42,"x_max":250,"o":"m 250 111 l 42 111 l 42 194 l 250 194 l 250 111 m 250 0 l 42 0 l 42 83 l 250 83 l 250 0 z "},":":{"ha":292,"x_min":42,"x_max":250,"o":"m 250 556 l 42 556 l 42 639 l 250 639 l 250 556 m 250 444 l 42 444 l 42 528 l 250 528 l 250 444 m 250 111 l 42 111 l 42 194 l 250 194 l 250 111 m 250 0 l 42 0 l 42 83 l 250 83 l 250 0 z "},";":{"ha":292,"x_min":42,"x_max":250,"o":"m 250 556 l 42 556 l 42 639 l 250 639 l 250 556 m 250 444 l 42 444 l 42 528 l 250 528 l 250 444 m 250 111 l 42 111 l 42 194 l 250 194 l 250 111 m 250 0 l 42 0 l 42 83 l 250 83 l 250 0 m 250 -111 l 146 -111 l 146 -28 l 250 -28 l 250 -111 z "},"?":{"ha":708,"x_min":42,"x_max":667,"o":"m 656 889 l 42 889 l 42 972 l 528 972 q 656 889 619 972 m 667 667 l 458 667 l 458 750 l 667 750 l 667 667 m 667 778 l 42 778 l 42 861 l 664 861 q 667 833 667 847 l 667 778 m 667 583 q 664 556 667 569 l 53 556 q 181 639 89 639 l 667 639 l 667 583 m 656 528 q 528 444 619 444 l 42 444 l 42 500 q 44 528 42 514 l 656 528 m 250 333 l 42 333 l 42 417 l 250 417 l 250 333 m 250 111 l 42 111 l 42 194 l 250 194 l 250 111 m 250 0 l 42 0 l 42 83 l 250 83 l 250 0 z "},"A":{"ha":1042,"x_min":0,"x_max":1042,"o":"m 686 889 l 356 889 l 389 972 l 653 972 l 686 889 m 731 778 l 311 778 l 344 861 l 697 861 l 731 778 m 819 556 l 583 556 l 550 639 l 786 639 l 819 556 m 775 667 l 539 667 l 521 713 l 503 667 l 267 667 l 300 750 l 742 750 l 775 667 m 864 444 l 628 444 l 594 528 l 831 528 l 864 444 m 997 111 l 761 111 l 728 194 l 964 194 l 997 111 m 492 639 l 458 556 l 222 556 l 256 639 l 492 639 m 1042 0 l 806 0 l 772 83 l 1008 83 l 1042 0 m 908 333 l 133 333 l 167 417 l 875 417 l 908 333 m 447 528 l 414 444 l 178 444 l 211 528 l 447 528 m 953 222 l 89 222 l 122 306 l 919 306 l 953 222 m 314 194 l 281 111 l 44 111 l 78 194 l 314 194 m 269 83 l 236 0 l 0 0 l 33 83 l 269 83 z "},"B":{"ha":917,"x_min":42,"x_max":875,"o":"m 875 694 q 872 667 875 681 l 667 667 l 667 750 l 875 750 l 875 694 m 864 889 l 42 889 l 42 972 l 736 972 q 864 889 828 972 m 875 778 l 42 778 l 42 861 l 872 861 q 875 833 875 847 l 875 778 m 875 333 l 667 333 l 667 417 l 872 417 q 875 389 875 403 l 875 333 m 864 639 q 736 556 828 556 l 42 556 l 42 639 l 864 639 m 875 222 l 667 222 l 667 306 l 875 306 l 875 222 m 864 444 l 42 444 l 42 528 l 736 528 q 864 444 828 528 m 250 667 l 42 667 l 42 750 l 250 750 l 250 667 m 875 139 q 872 111 875 125 l 42 111 l 42 194 l 875 194 l 875 139 m 250 333 l 42 333 l 42 417 l 250 417 l 250 333 m 864 83 q 736 0 828 0 l 42 0 l 42 83 l 864 83 m 250 222 l 42 222 l 42 306 l 250 306 l 250 222 z "},"C":{"ha":847,"x_min":42,"x_max":806,"o":"m 806 889 l 53 889 q 181 972 89 972 l 806 972 l 806 889 m 806 778 l 42 778 l 42 833 q 44 861 42 847 l 806 861 l 806 778 m 250 667 l 42 667 l 42 750 l 250 750 l 250 667 m 250 556 l 42 556 l 42 639 l 250 639 l 250 556 m 250 444 l 42 444 l 42 528 l 250 528 l 250 444 m 806 111 l 44 111 q 42 139 42 125 l 42 194 l 806 194 l 806 111 m 250 333 l 42 333 l 42 417 l 250 417 l 250 333 m 806 0 l 181 0 q 53 83 89 0 l 806 83 l 806 0 m 250 222 l 42 222 l 42 306 l 250 306 l 250 222 z "},"D":{"ha":917,"x_min":42,"x_max":875,"o":"m 875 667 l 667 667 l 667 750 l 875 750 l 875 667 m 864 889 l 42 889 l 42 972 l 736 972 q 864 889 828 972 m 875 556 l 667 556 l 667 639 l 875 639 l 875 556 m 875 778 l 42 778 l 42 861 l 872 861 q 875 833 875 847 l 875 778 m 875 444 l 667 444 l 667 528 l 875 528 l 875 444 m 875 333 l 667 333 l 667 417 l 875 417 l 875 333 m 875 222 l 667 222 l 667 306 l 875 306 l 875 222 m 250 667 l 42 667 l 42 750 l 250 750 l 250 667 m 250 556 l 42 556 l 42 639 l 250 639 l 250 556 m 250 444 l 42 444 l 42 528 l 250 528 l 250 444 m 875 139 q 872 111 875 125 l 42 111 l 42 194 l 875 194 l 875 139 m 250 333 l 42 333 l 42 417 l 250 417 l 250 333 m 864 83 q 736 0 828 0 l 42 0 l 42 83 l 864 83 m 250 222 l 42 222 l 42 306 l 250 306 l 250 222 z "},"E":{"ha":847,"x_min":42,"x_max":806,"o":"m 806 889 l 53 889 q 181 972 89 972 l 806 972 l 806 889 m 806 778 l 42 778 l 42 833 q 44 861 42 847 l 806 861 l 806 778 m 806 556 l 42 556 l 42 639 l 806 639 l 806 556 m 806 444 l 42 444 l 42 528 l 806 528 l 806 444 m 250 667 l 42 667 l 42 750 l 250 750 l 250 667 m 806 111 l 44 111 q 42 139 42 125 l 42 194 l 806 194 l 806 111 m 250 333 l 42 333 l 42 417 l 250 417 l 250 333 m 806 0 l 181 0 q 53 83 89 0 l 806 83 l 806 0 m 250 222 l 42 222 l 42 306 l 250 306 l 250 222 z "},"F":{"ha":847,"x_min":42,"x_max":806,"o":"m 806 889 l 53 889 q 181 972 89 972 l 806 972 l 806 889 m 806 778 l 42 778 l 42 833 q 44 861 42 847 l 806 861 l 806 778 m 806 556 l 42 556 l 42 639 l 806 639 l 806 556 m 806 444 l 42 444 l 42 528 l 806 528 l 806 444 m 250 667 l 42 667 l 42 750 l 250 750 l 250 667 m 250 333 l 42 333 l 42 417 l 250 417 l 250 333 m 250 222 l 42 222 l 42 306 l 250 306 l 250 222 m 250 111 l 42 111 l 42 194 l 250 194 l 250 111 m 250 0 l 42 0 l 42 83 l 250 83 l 250 0 z "},"G":{"ha":917,"x_min":42,"x_max":875,"o":"m 875 889 l 53 889 q 181 972 89 972 l 875 972 l 875 889 m 875 778 l 42 778 l 42 833 q 44 861 42 847 l 875 861 l 875 778 m 875 556 l 389 556 l 389 639 l 875 639 l 875 556 m 875 333 l 667 333 l 667 417 l 875 417 l 875 333 m 875 444 l 389 444 l 389 528 l 875 528 l 875 444 m 875 222 l 667 222 l 667 306 l 875 306 l 875 222 m 250 667 l 42 667 l 42 750 l 250 750 l 250 667 m 250 556 l 42 556 l 42 639 l 250 639 l 250 556 m 250 444 l 42 444 l 42 528 l 250 528 l 250 444 m 875 111 l 44 111 q 42 139 42 125 l 42 194 l 875 194 l 875 111 m 250 333 l 42 333 l 42 417 l 250 417 l 250 333 m 875 0 l 181 0 q 53 83 89 0 l 875 83 l 875 0 m 250 222 l 42 222 l 42 306 l 250 306 l 250 222 z "},"H":{"ha":917,"x_min":42,"x_max":875,"o":"m 875 889 l 667 889 l 667 972 l 875 972 l 875 889 m 875 778 l 667 778 l 667 861 l 875 861 l 875 778 m 875 667 l 667 667 l 667 750 l 875 750 l 875 667 m 875 333 l 667 333 l 667 417 l 875 417 l 875 333 m 250 889 l 42 889 l 42 972 l 250 972 l 250 889 m 875 556 l 42 556 l 42 639 l 875 639 l 875 556 m 875 222 l 667 222 l 667 306 l 875 306 l 875 222 m 250 778 l 42 778 l 42 861 l 250 861 l 250 778 m 875 444 l 42 444 l 42 528 l 875 528 l 875 444 m 875 111 l 667 111 l 667 194 l 875 194 l 875 111 m 250 667 l 42 667 l 42 750 l 250 750 l 250 667 m 875 0 l 667 0 l 667 83 l 875 83 l 875 0 m 250 333 l 42 333 l 42 417 l 250 417 l 250 333 m 250 222 l 42 222 l 42 306 l 250 306 l 250 222 m 250 111 l 42 111 l 42 194 l 250 194 l 250 111 m 250 0 l 42 0 l 42 83 l 250 83 l 250 0 z "},"I":{"ha":292,"x_min":42,"x_max":250,"o":"m 250 889 l 42 889 l 42 972 l 250 972 l 250 889 m 250 778 l 42 778 l 42 861 l 250 861 l 250 778 m 250 667 l 42 667 l 42 750 l 250 750 l 250 667 m 250 556 l 42 556 l 42 639 l 250 639 l 250 556 m 250 444 l 42 444 l 42 528 l 250 528 l 250 444 m 250 333 l 42 333 l 42 417 l 250 417 l 250 333 m 250 222 l 42 222 l 42 306 l 250 306 l 250 222 m 250 111 l 42 111 l 42 194 l 250 194 l 250 111 m 250 0 l 42 0 l 42 83 l 250 83 l 250 0 z "},"J":{"ha":917,"x_min":42,"x_max":875,"o":"m 875 889 l 667 889 l 667 972 l 875 972 l 875 889 m 875 778 l 667 778 l 667 861 l 875 861 l 875 778 m 875 667 l 667 667 l 667 750 l 875 750 l 875 667 m 875 556 l 667 556 l 667 639 l 875 639 l 875 556 m 875 444 l 667 444 l 667 528 l 875 528 l 875 444 m 875 333 l 667 333 l 667 417 l 875 417 l 875 333 m 875 222 l 667 222 l 667 306 l 875 306 l 875 222 m 875 139 q 872 111 875 125 l 44 111 q 42 139 42 125 l 42 194 l 875 194 l 875 139 m 250 333 l 42 333 l 42 417 l 250 417 l 250 333 m 864 83 q 736 0 828 0 l 181 0 q 53 83 89 0 l 864 83 m 250 222 l 42 222 l 42 306 l 250 306 l 250 222 z "},"K":{"ha":1000,"x_min":42,"x_max":958,"o":"m 958 972 l 897 889 l 633 889 l 694 972 l 958 972 m 878 861 l 817 778 l 553 778 l 614 861 l 878 861 m 796 750 l 736 667 l 472 667 l 532 750 l 796 750 m 715 639 l 654 556 l 390 556 l 451 639 l 715 639 m 250 889 l 42 889 l 42 972 l 250 972 l 250 889 m 250 778 l 42 778 l 42 861 l 250 861 l 250 778 m 635 444 l 310 444 l 371 528 l 635 528 l 604 486 l 635 444 m 878 111 l 614 111 l 553 194 l 817 194 l 878 111 m 250 667 l 42 667 l 42 750 l 250 750 l 250 667 m 958 0 l 694 0 l 633 83 l 897 83 l 958 0 m 715 333 l 42 333 l 42 417 l 250 417 l 250 363 l 290 417 l 654 417 l 715 333 m 250 556 l 42 556 l 42 639 l 250 639 l 250 556 m 796 222 l 532 222 l 472 306 l 413 222 l 42 222 l 42 306 l 736 306 l 796 222 m 250 444 l 42 444 l 42 528 l 250 528 l 250 444 m 392 194 l 331 111 l 42 111 l 42 194 l 392 194 m 311 83 l 250 0 l 42 0 l 42 83 l 311 83 z "},"L":{"ha":847,"x_min":42,"x_max":806,"o":"m 250 889 l 42 889 l 42 972 l 250 972 l 250 889 m 250 778 l 42 778 l 42 861 l 250 861 l 250 778 m 250 667 l 42 667 l 42 750 l 250 750 l 250 667 m 250 556 l 42 556 l 42 639 l 250 639 l 250 556 m 250 444 l 42 444 l 42 528 l 250 528 l 250 444 m 806 111 l 44 111 q 42 139 42 125 l 42 194 l 806 194 l 806 111 m 250 333 l 42 333 l 42 417 l 250 417 l 250 333 m 806 0 l 181 0 q 53 83 89 0 l 806 83 l 806 0 m 250 222 l 42 222 l 42 306 l 250 306 l 250 222 z "},"M":{"ha":1139,"x_min":42,"x_max":1097,"o":"m 1097 889 l 849 889 l 889 972 l 1097 972 l 1097 889 m 1097 778 l 794 778 l 835 861 l 1097 861 l 1097 778 m 1097 667 l 740 667 l 781 750 l 1097 750 l 1097 667 m 1097 556 l 686 556 l 726 639 l 1097 639 l 1097 556 m 1097 333 l 889 333 l 889 417 l 1097 417 l 1097 333 m 1097 444 l 889 444 l 889 486 l 868 444 l 632 444 l 674 528 l 1097 528 l 1097 444 m 1097 222 l 889 222 l 889 306 l 1097 306 l 1097 222 m 1097 111 l 889 111 l 889 194 l 1097 194 l 1097 111 m 290 889 l 42 889 l 42 972 l 250 972 l 290 889 m 856 417 l 815 333 l 579 333 l 619 417 l 856 417 m 1097 0 l 889 0 l 889 83 l 1097 83 l 1097 0 m 344 778 l 42 778 l 42 861 l 304 861 l 344 778 m 399 667 l 42 667 l 42 750 l 358 750 l 399 667 m 453 556 l 42 556 l 42 639 l 413 639 l 453 556 m 801 306 l 761 222 l 378 222 l 338 306 l 801 306 m 560 333 l 324 333 l 283 417 l 519 417 l 560 333 m 507 444 l 271 444 l 250 486 l 250 444 l 42 444 l 42 528 l 465 528 l 507 444 m 747 194 l 707 111 l 432 111 l 392 194 l 747 194 m 693 83 l 653 0 l 486 0 l 446 83 l 693 83 m 250 333 l 42 333 l 42 417 l 250 417 l 250 333 m 250 222 l 42 222 l 42 306 l 250 306 l 250 222 m 250 111 l 42 111 l 42 194 l 250 194 l 250 111 m 250 0 l 42 0 l 42 83 l 250 83 l 250 0 z "},"N":{"ha":917,"x_min":42,"x_max":875,"o":"m 875 889 l 667 889 l 667 972 l 875 972 l 875 889 m 875 778 l 667 778 l 667 861 l 875 861 l 875 778 m 875 667 l 667 667 l 667 750 l 875 750 l 875 667 m 875 556 l 667 556 l 667 639 l 875 639 l 875 556 m 875 444 l 667 444 l 667 528 l 875 528 l 875 444 m 310 889 l 42 889 l 42 972 l 250 972 l 310 889 m 389 778 l 42 778 l 42 861 l 329 861 l 389 778 m 875 333 l 429 333 l 369 417 l 647 417 l 667 389 l 667 417 l 875 417 l 875 333 m 468 667 l 42 667 l 42 750 l 408 750 l 468 667 m 626 444 l 349 444 l 290 528 l 568 528 l 626 444 m 875 222 l 508 222 l 449 306 l 875 306 l 875 222 m 547 556 l 269 556 l 250 583 l 250 556 l 42 556 l 42 639 l 488 639 l 547 556 m 875 111 l 588 111 l 528 194 l 875 194 l 875 111 m 875 0 l 667 0 l 607 83 l 875 83 l 875 0 m 250 444 l 42 444 l 42 528 l 250 528 l 250 444 m 250 333 l 42 333 l 42 417 l 250 417 l 250 333 m 250 222 l 42 222 l 42 306 l 250 306 l 250 222 m 250 111 l 42 111 l 42 194 l 250 194 l 250 111 m 250 0 l 42 0 l 42 83 l 250 83 l 250 0 z "},"O":{"ha":917,"x_min":42,"x_max":875,"o":"m 875 667 l 667 667 l 667 750 l 875 750 l 875 667 m 864 889 l 53 889 q 181 972 89 972 l 736 972 q 864 889 828 972 m 875 556 l 667 556 l 667 639 l 875 639 l 875 556 m 875 778 l 42 778 l 42 833 q 44 861 42 847 l 872 861 q 875 833 875 847 l 875 778 m 875 444 l 667 444 l 667 528 l 875 528 l 875 444 m 875 333 l 667 333 l 667 417 l 875 417 l 875 333 m 875 222 l 667 222 l 667 306 l 875 306 l 875 222 m 250 667 l 42 667 l 42 750 l 250 750 l 250 667 m 250 556 l 42 556 l 42 639 l 250 639 l 250 556 m 250 444 l 42 444 l 42 528 l 250 528 l 250 444 m 875 139 q 872 111 875 125 l 44 111 q 42 139 42 125 l 42 194 l 875 194 l 875 139 m 250 333 l 42 333 l 42 417 l 250 417 l 250 333 m 864 83 q 736 0 828 0 l 181 0 q 53 83 89 0 l 864 83 m 250 222 l 42 222 l 42 306 l 250 306 l 250 222 z "},"P":{"ha":917,"x_min":42,"x_max":875,"o":"m 875 667 l 667 667 l 667 750 l 875 750 l 875 667 m 864 889 l 42 889 l 42 972 l 736 972 q 864 889 828 972 m 875 778 l 42 778 l 42 861 l 872 861 q 875 833 875 847 l 875 778 m 875 583 q 872 556 875 569 l 42 556 l 42 639 l 875 639 l 875 583 m 864 528 q 736 444 828 444 l 42 444 l 42 528 l 864 528 m 250 667 l 42 667 l 42 750 l 250 750 l 250 667 m 250 333 l 42 333 l 42 417 l 250 417 l 250 333 m 250 222 l 42 222 l 42 306 l 250 306 l 250 222 m 250 111 l 42 111 l 42 194 l 250 194 l 250 111 m 250 0 l 42 0 l 42 83 l 250 83 l 250 0 z "},"Q":{"ha":1056,"x_min":42,"x_max":1014,"o":"m 875 667 l 667 667 l 667 750 l 875 750 l 875 667 m 864 889 l 53 889 q 181 972 89 972 l 736 972 q 864 889 828 972 m 875 556 l 667 556 l 667 639 l 875 639 l 875 556 m 875 778 l 42 778 l 42 833 q 44 861 42 847 l 872 861 q 875 833 875 847 l 875 778 m 875 444 l 667 444 l 667 528 l 875 528 l 875 444 m 875 333 l 667 333 l 667 417 l 875 417 l 875 333 m 875 222 l 667 222 l 667 306 l 875 306 l 875 222 m 250 667 l 42 667 l 42 750 l 250 750 l 250 667 m 250 556 l 42 556 l 42 639 l 250 639 l 250 556 m 1014 111 l 44 111 q 42 139 42 125 l 42 194 l 1014 194 l 1014 111 m 250 444 l 42 444 l 42 528 l 250 528 l 250 444 m 1014 0 l 181 0 q 53 83 89 0 l 1014 83 l 1014 0 m 250 333 l 42 333 l 42 417 l 250 417 l 250 333 m 250 222 l 42 222 l 42 306 l 250 306 l 250 222 z "},"R":{"ha":917,"x_min":42,"x_max":875,"o":"m 875 694 q 872 667 875 681 l 667 667 l 667 750 l 875 750 l 875 694 m 864 889 l 42 889 l 42 972 l 736 972 q 864 889 828 972 m 875 778 l 42 778 l 42 861 l 872 861 q 875 833 875 847 l 875 778 m 875 333 l 667 333 l 667 417 l 872 417 q 875 389 875 403 l 875 333 m 864 639 q 736 556 828 556 l 42 556 l 42 639 l 864 639 m 875 222 l 667 222 l 667 306 l 875 306 l 875 222 m 864 444 l 42 444 l 42 528 l 736 528 q 864 444 828 528 m 875 111 l 667 111 l 667 194 l 875 194 l 875 111 m 250 667 l 42 667 l 42 750 l 250 750 l 250 667 m 875 0 l 667 0 l 667 83 l 875 83 l 875 0 m 250 333 l 42 333 l 42 417 l 250 417 l 250 333 m 250 222 l 42 222 l 42 306 l 250 306 l 250 222 m 250 111 l 42 111 l 42 194 l 250 194 l 250 111 m 250 0 l 42 0 l 42 83 l 250 83 l 250 0 z "},"S":{"ha":917,"x_min":42,"x_max":875,"o":"m 875 889 l 53 889 q 181 972 89 972 l 875 972 l 875 889 m 875 778 l 42 778 l 42 833 q 44 861 42 847 l 875 861 l 875 778 m 875 333 l 667 333 l 667 417 l 875 417 l 875 333 m 864 556 l 44 556 q 42 583 42 569 l 42 639 l 736 639 q 864 556 828 639 m 875 222 l 667 222 l 667 306 l 875 306 l 875 222 m 875 444 l 181 444 q 53 528 89 444 l 872 528 q 875 500 875 514 l 875 444 m 250 667 l 42 667 l 42 750 l 250 750 l 250 667 m 875 139 q 872 111 875 125 l 42 111 l 42 194 l 875 194 l 875 139 m 864 83 q 736 0 828 0 l 42 0 l 42 83 l 864 83 z "},"T":{"ha":917,"x_min":42,"x_max":875,"o":"m 875 889 l 42 889 l 42 972 l 875 972 l 875 889 m 875 778 l 42 778 l 42 861 l 875 861 l 875 778 m 576 667 l 368 667 l 368 750 l 576 750 l 576 667 m 576 556 l 368 556 l 368 639 l 576 639 l 576 556 m 576 444 l 368 444 l 368 528 l 576 528 l 576 444 m 576 333 l 368 333 l 368 417 l 576 417 l 576 333 m 576 222 l 368 222 l 368 306 l 576 306 l 576 222 m 576 111 l 368 111 l 368 194 l 576 194 l 576 111 m 576 0 l 368 0 l 368 83 l 576 83 l 576 0 z "},"U":{"ha":917,"x_min":42,"x_max":875,"o":"m 875 889 l 667 889 l 667 972 l 875 972 l 875 889 m 875 778 l 667 778 l 667 861 l 875 861 l 875 778 m 875 667 l 667 667 l 667 750 l 875 750 l 875 667 m 875 556 l 667 556 l 667 639 l 875 639 l 875 556 m 875 444 l 667 444 l 667 528 l 875 528 l 875 444 m 875 333 l 667 333 l 667 417 l 875 417 l 875 333 m 250 889 l 42 889 l 42 972 l 250 972 l 250 889 m 875 222 l 667 222 l 667 306 l 875 306 l 875 222 m 250 778 l 42 778 l 42 861 l 250 861 l 250 778 m 250 667 l 42 667 l 42 750 l 250 750 l 250 667 m 250 556 l 42 556 l 42 639 l 250 639 l 250 556 m 250 444 l 42 444 l 42 528 l 250 528 l 250 444 m 875 139 q 872 111 875 125 l 44 111 q 42 139 42 125 l 42 194 l 875 194 l 875 139 m 250 333 l 42 333 l 42 417 l 250 417 l 250 333 m 864 83 q 736 0 828 0 l 181 0 q 53 83 89 0 l 864 83 m 250 222 l 42 222 l 42 306 l 250 306 l 250 222 z "},"V":{"ha":1042,"x_min":0,"x_max":1042,"o":"m 1042 972 l 1008 889 l 772 889 l 806 972 l 1042 972 m 997 861 l 964 778 l 728 778 l 761 861 l 997 861 m 953 750 l 919 667 l 683 667 l 717 750 l 953 750 m 908 639 l 875 556 l 639 556 l 672 639 l 908 639 m 864 528 l 831 444 l 594 444 l 628 528 l 864 528 m 269 889 l 33 889 l 0 972 l 236 972 l 269 889 m 819 417 l 786 333 l 550 333 l 583 417 l 819 417 m 314 778 l 78 778 l 44 861 l 281 861 l 314 778 m 358 667 l 122 667 l 89 750 l 325 750 l 358 667 m 403 556 l 167 556 l 133 639 l 369 639 l 403 556 m 447 444 l 211 444 l 178 528 l 414 528 l 447 444 m 775 306 l 742 222 l 300 222 l 267 306 l 503 306 l 521 260 l 539 306 l 775 306 m 492 333 l 256 333 l 222 417 l 458 417 l 492 333 m 731 194 l 697 111 l 344 111 l 311 194 l 731 194 m 686 83 l 653 0 l 389 0 l 356 83 l 686 83 z "},"W":{"ha":1458,"x_min":0,"x_max":1458,"o":"m 1458 972 l 1425 889 l 1189 889 l 1222 972 l 1458 972 m 1414 861 l 1381 778 l 1144 778 l 1178 861 l 1414 861 m 1369 750 l 1336 667 l 1100 667 l 1133 750 l 1369 750 m 1042 972 l 1008 889 l 772 889 l 806 972 l 1042 972 m 1325 639 l 1292 556 l 1056 556 l 1089 639 l 1325 639 m 1281 528 l 1247 444 l 1011 444 l 1044 528 l 1281 528 m 997 861 l 964 778 l 494 778 l 461 861 l 697 861 l 729 782 l 761 861 l 997 861 m 686 889 l 450 889 l 417 972 l 653 972 l 686 889 m 1236 417 l 1203 333 l 967 333 l 1000 417 l 1236 417 m 953 750 l 919 667 l 539 667 l 506 750 l 953 750 m 908 639 l 875 556 l 583 556 l 550 639 l 908 639 m 864 444 l 594 444 l 611 486 l 594 528 l 864 528 l 847 486 l 864 444 m 908 333 l 550 333 l 583 417 l 875 417 l 908 333 m 269 889 l 33 889 l 0 972 l 236 972 l 269 889 m 314 778 l 78 778 l 44 861 l 281 861 l 314 778 m 1192 306 l 1158 222 l 300 222 l 267 306 l 503 306 l 521 260 l 539 306 l 919 306 l 938 260 l 956 306 l 1192 306 m 1103 83 l 1069 0 l 806 0 l 772 83 l 1103 83 m 358 667 l 122 667 l 89 750 l 325 750 l 358 667 m 1147 194 l 1114 111 l 761 111 l 729 192 l 697 111 l 344 111 l 311 194 l 1147 194 m 403 556 l 167 556 l 133 639 l 369 639 l 403 556 m 447 444 l 211 444 l 178 528 l 414 528 l 447 444 m 492 333 l 256 333 l 222 417 l 458 417 l 492 333 m 686 83 l 653 0 l 389 0 l 356 83 l 686 83 z "},"X":{"ha":1056,"x_min":42,"x_max":1014,"o":"m 1014 972 l 953 889 l 689 889 l 750 972 l 1014 972 m 933 861 l 872 778 l 608 778 l 669 861 l 933 861 m 851 750 l 792 667 l 264 667 l 204 750 l 468 750 l 528 667 l 588 750 l 851 750 m 367 889 l 103 889 l 42 972 l 306 972 l 367 889 m 771 639 l 710 556 l 346 556 l 285 639 l 771 639 m 447 778 l 183 778 l 122 861 l 386 861 l 447 778 m 690 444 l 365 444 l 396 486 l 365 528 l 690 528 l 660 486 l 690 444 m 933 111 l 669 111 l 608 194 l 872 194 l 933 111 m 771 333 l 285 333 l 346 417 l 710 417 l 771 333 m 1014 0 l 750 0 l 689 83 l 953 83 l 1014 0 m 851 222 l 588 222 l 528 306 l 468 222 l 204 222 l 264 306 l 792 306 l 851 222 m 447 194 l 386 111 l 122 111 l 183 194 l 447 194 m 367 83 l 306 0 l 42 0 l 103 83 l 367 83 z "},"Y":{"ha":1056,"x_min":42,"x_max":1014,"o":"m 1014 972 l 953 889 l 689 889 l 750 972 l 1014 972 m 933 861 l 872 778 l 608 778 l 669 861 l 933 861 m 851 750 l 792 667 l 264 667 l 204 750 l 468 750 l 528 667 l 588 750 l 851 750 m 367 889 l 103 889 l 42 972 l 306 972 l 367 889 m 771 639 l 710 556 l 346 556 l 285 639 l 771 639 m 447 778 l 183 778 l 122 861 l 386 861 l 447 778 m 690 528 l 632 444 l 424 444 l 365 528 l 690 528 m 632 333 l 424 333 l 424 417 l 632 417 l 632 333 m 632 222 l 424 222 l 424 306 l 632 306 l 632 222 m 632 111 l 424 111 l 424 194 l 632 194 l 632 111 m 632 0 l 424 0 l 424 83 l 632 83 l 632 0 z "},"Z":{"ha":917,"x_min":42,"x_max":875,"o":"m 875 889 l 42 889 l 42 972 l 875 972 l 875 889 m 850 750 l 775 667 l 469 667 l 544 750 l 850 750 m 875 778 l 42 778 l 42 861 l 875 861 l 875 778 m 750 639 l 674 556 l 368 556 l 444 639 l 750 639 m 649 528 l 574 444 l 268 444 l 343 528 l 649 528 m 549 417 l 472 333 l 167 333 l 243 417 l 549 417 m 875 111 l 42 111 l 42 194 l 875 194 l 875 111 m 447 306 l 372 222 l 67 222 l 142 306 l 447 306 m 875 0 l 42 0 l 42 83 l 875 83 l 875 0 z "},"a":{"ha":1042,"x_min":0,"x_max":1042,"o":"m 686 889 l 356 889 l 389 972 l 653 972 l 686 889 m 731 778 l 311 778 l 344 861 l 697 861 l 731 778 m 819 556 l 583 556 l 550 639 l 786 639 l 819 556 m 775 667 l 539 667 l 521 713 l 503 667 l 267 667 l 300 750 l 742 750 l 775 667 m 864 444 l 628 444 l 594 528 l 831 528 l 864 444 m 997 111 l 761 111 l 728 194 l 964 194 l 997 111 m 492 639 l 458 556 l 222 556 l 256 639 l 492 639 m 1042 0 l 806 0 l 772 83 l 1008 83 l 1042 0 m 908 333 l 133 333 l 167 417 l 875 417 l 908 333 m 447 528 l 414 444 l 178 444 l 211 528 l 447 528 m 953 222 l 89 222 l 122 306 l 919 306 l 953 222 m 314 194 l 281 111 l 44 111 l 78 194 l 314 194 m 269 83 l 236 0 l 0 0 l 33 83 l 269 83 z "},"b":{"ha":917,"x_min":42,"x_max":875,"o":"m 875 694 q 872 667 875 681 l 667 667 l 667 750 l 875 750 l 875 694 m 864 889 l 42 889 l 42 972 l 736 972 q 864 889 828 972 m 875 778 l 42 778 l 42 861 l 872 861 q 875 833 875 847 l 875 778 m 875 333 l 667 333 l 667 417 l 872 417 q 875 389 875 403 l 875 333 m 864 639 q 736 556 828 556 l 42 556 l 42 639 l 864 639 m 875 222 l 667 222 l 667 306 l 875 306 l 875 222 m 864 444 l 42 444 l 42 528 l 736 528 q 864 444 828 528 m 250 667 l 42 667 l 42 750 l 250 750 l 250 667 m 875 139 q 872 111 875 125 l 42 111 l 42 194 l 875 194 l 875 139 m 250 333 l 42 333 l 42 417 l 250 417 l 250 333 m 864 83 q 736 0 828 0 l 42 0 l 42 83 l 864 83 m 250 222 l 42 222 l 42 306 l 250 306 l 250 222 z "},"c":{"ha":847,"x_min":42,"x_max":806,"o":"m 806 889 l 53 889 q 181 972 89 972 l 806 972 l 806 889 m 806 778 l 42 778 l 42 833 q 44 861 42 847 l 806 861 l 806 778 m 250 667 l 42 667 l 42 750 l 250 750 l 250 667 m 250 556 l 42 556 l 42 639 l 250 639 l 250 556 m 250 444 l 42 444 l 42 528 l 250 528 l 250 444 m 806 111 l 44 111 q 42 139 42 125 l 42 194 l 806 194 l 806 111 m 250 333 l 42 333 l 42 417 l 250 417 l 250 333 m 806 0 l 181 0 q 53 83 89 0 l 806 83 l 806 0 m 250 222 l 42 222 l 42 306 l 250 306 l 250 222 z "},"d":{"ha":917,"x_min":42,"x_max":875,"o":"m 875 667 l 667 667 l 667 750 l 875 750 l 875 667 m 864 889 l 42 889 l 42 972 l 736 972 q 864 889 828 972 m 875 556 l 667 556 l 667 639 l 875 639 l 875 556 m 875 778 l 42 778 l 42 861 l 872 861 q 875 833 875 847 l 875 778 m 875 444 l 667 444 l 667 528 l 875 528 l 875 444 m 875 333 l 667 333 l 667 417 l 875 417 l 875 333 m 875 222 l 667 222 l 667 306 l 875 306 l 875 222 m 250 667 l 42 667 l 42 750 l 250 750 l 250 667 m 250 556 l 42 556 l 42 639 l 250 639 l 250 556 m 250 444 l 42 444 l 42 528 l 250 528 l 250 444 m 875 139 q 872 111 875 125 l 42 111 l 42 194 l 875 194 l 875 139 m 250 333 l 42 333 l 42 417 l 250 417 l 250 333 m 864 83 q 736 0 828 0 l 42 0 l 42 83 l 864 83 m 250 222 l 42 222 l 42 306 l 250 306 l 250 222 z "},"e":{"ha":847,"x_min":42,"x_max":806,"o":"m 806 889 l 53 889 q 181 972 89 972 l 806 972 l 806 889 m 806 778 l 42 778 l 42 833 q 44 861 42 847 l 806 861 l 806 778 m 806 556 l 42 556 l 42 639 l 806 639 l 806 556 m 806 444 l 42 444 l 42 528 l 806 528 l 806 444 m 250 667 l 42 667 l 42 750 l 250 750 l 250 667 m 806 111 l 44 111 q 42 139 42 125 l 42 194 l 806 194 l 806 111 m 250 333 l 42 333 l 42 417 l 250 417 l 250 333 m 806 0 l 181 0 q 53 83 89 0 l 806 83 l 806 0 m 250 222 l 42 222 l 42 306 l 250 306 l 250 222 z "},"f":{"ha":847,"x_min":42,"x_max":806,"o":"m 806 889 l 53 889 q 181 972 89 972 l 806 972 l 806 889 m 806 778 l 42 778 l 42 833 q 44 861 42 847 l 806 861 l 806 778 m 806 556 l 42 556 l 42 639 l 806 639 l 806 556 m 806 444 l 42 444 l 42 528 l 806 528 l 806 444 m 250 667 l 42 667 l 42 750 l 250 750 l 250 667 m 250 333 l 42 333 l 42 417 l 250 417 l 250 333 m 250 222 l 42 222 l 42 306 l 250 306 l 250 222 m 250 111 l 42 111 l 42 194 l 250 194 l 250 111 m 250 0 l 42 0 l 42 83 l 250 83 l 250 0 z "},"g":{"ha":917,"x_min":42,"x_max":875,"o":"m 875 889 l 53 889 q 181 972 89 972 l 875 972 l 875 889 m 875 778 l 42 778 l 42 833 q 44 861 42 847 l 875 861 l 875 778 m 875 556 l 389 556 l 389 639 l 875 639 l 875 556 m 875 333 l 667 333 l 667 417 l 875 417 l 875 333 m 875 444 l 389 444 l 389 528 l 875 528 l 875 444 m 875 222 l 667 222 l 667 306 l 875 306 l 875 222 m 250 667 l 42 667 l 42 750 l 250 750 l 250 667 m 250 556 l 42 556 l 42 639 l 250 639 l 250 556 m 250 444 l 42 444 l 42 528 l 250 528 l 250 444 m 875 111 l 44 111 q 42 139 42 125 l 42 194 l 875 194 l 875 111 m 250 333 l 42 333 l 42 417 l 250 417 l 250 333 m 875 0 l 181 0 q 53 83 89 0 l 875 83 l 875 0 m 250 222 l 42 222 l 42 306 l 250 306 l 250 222 z "},"h":{"ha":917,"x_min":42,"x_max":875,"o":"m 875 889 l 667 889 l 667 972 l 875 972 l 875 889 m 875 778 l 667 778 l 667 861 l 875 861 l 875 778 m 875 667 l 667 667 l 667 750 l 875 750 l 875 667 m 875 333 l 667 333 l 667 417 l 875 417 l 875 333 m 250 889 l 42 889 l 42 972 l 250 972 l 250 889 m 875 556 l 42 556 l 42 639 l 875 639 l 875 556 m 875 222 l 667 222 l 667 306 l 875 306 l 875 222 m 250 778 l 42 778 l 42 861 l 250 861 l 250 778 m 875 444 l 42 444 l 42 528 l 875 528 l 875 444 m 875 111 l 667 111 l 667 194 l 875 194 l 875 111 m 250 667 l 42 667 l 42 750 l 250 750 l 250 667 m 875 0 l 667 0 l 667 83 l 875 83 l 875 0 m 250 333 l 42 333 l 42 417 l 250 417 l 250 333 m 250 222 l 42 222 l 42 306 l 250 306 l 250 222 m 250 111 l 42 111 l 42 194 l 250 194 l 250 111 m 250 0 l 42 0 l 42 83 l 250 83 l 250 0 z "},"i":{"ha":292,"x_min":42,"x_max":250,"o":"m 250 889 l 42 889 l 42 972 l 250 972 l 250 889 m 250 778 l 42 778 l 42 861 l 250 861 l 250 778 m 250 667 l 42 667 l 42 750 l 250 750 l 250 667 m 250 556 l 42 556 l 42 639 l 250 639 l 250 556 m 250 444 l 42 444 l 42 528 l 250 528 l 250 444 m 250 333 l 42 333 l 42 417 l 250 417 l 250 333 m 250 222 l 42 222 l 42 306 l 250 306 l 250 222 m 250 111 l 42 111 l 42 194 l 250 194 l 250 111 m 250 0 l 42 0 l 42 83 l 250 83 l 250 0 z "},"j":{"ha":917,"x_min":42,"x_max":875,"o":"m 875 889 l 667 889 l 667 972 l 875 972 l 875 889 m 875 778 l 667 778 l 667 861 l 875 861 l 875 778 m 875 667 l 667 667 l 667 750 l 875 750 l 875 667 m 875 556 l 667 556 l 667 639 l 875 639 l 875 556 m 875 444 l 667 444 l 667 528 l 875 528 l 875 444 m 875 333 l 667 333 l 667 417 l 875 417 l 875 333 m 875 222 l 667 222 l 667 306 l 875 306 l 875 222 m 875 139 q 872 111 875 125 l 44 111 q 42 139 42 125 l 42 194 l 875 194 l 875 139 m 250 333 l 42 333 l 42 417 l 250 417 l 250 333 m 864 83 q 736 0 828 0 l 181 0 q 53 83 89 0 l 864 83 m 250 222 l 42 222 l 42 306 l 250 306 l 250 222 z "},"k":{"ha":1000,"x_min":42,"x_max":958,"o":"m 958 972 l 897 889 l 633 889 l 694 972 l 958 972 m 878 861 l 817 778 l 553 778 l 614 861 l 878 861 m 796 750 l 736 667 l 472 667 l 532 750 l 796 750 m 715 639 l 654 556 l 390 556 l 451 639 l 715 639 m 250 889 l 42 889 l 42 972 l 250 972 l 250 889 m 250 778 l 42 778 l 42 861 l 250 861 l 250 778 m 635 444 l 310 444 l 371 528 l 635 528 l 604 486 l 635 444 m 878 111 l 614 111 l 553 194 l 817 194 l 878 111 m 250 667 l 42 667 l 42 750 l 250 750 l 250 667 m 958 0 l 694 0 l 633 83 l 897 83 l 958 0 m 715 333 l 42 333 l 42 417 l 250 417 l 250 363 l 290 417 l 654 417 l 715 333 m 250 556 l 42 556 l 42 639 l 250 639 l 250 556 m 796 222 l 532 222 l 472 306 l 413 222 l 42 222 l 42 306 l 736 306 l 796 222 m 250 444 l 42 444 l 42 528 l 250 528 l 250 444 m 392 194 l 331 111 l 42 111 l 42 194 l 392 194 m 311 83 l 250 0 l 42 0 l 42 83 l 311 83 z "},"l":{"ha":847,"x_min":42,"x_max":806,"o":"m 250 889 l 42 889 l 42 972 l 250 972 l 250 889 m 250 778 l 42 778 l 42 861 l 250 861 l 250 778 m 250 667 l 42 667 l 42 750 l 250 750 l 250 667 m 250 556 l 42 556 l 42 639 l 250 639 l 250 556 m 250 444 l 42 444 l 42 528 l 250 528 l 250 444 m 806 111 l 44 111 q 42 139 42 125 l 42 194 l 806 194 l 806 111 m 250 333 l 42 333 l 42 417 l 250 417 l 250 333 m 806 0 l 181 0 q 53 83 89 0 l 806 83 l 806 0 m 250 222 l 42 222 l 42 306 l 250 306 l 250 222 z "},"m":{"ha":1139,"x_min":42,"x_max":1097,"o":"m 1097 889 l 849 889 l 889 972 l 1097 972 l 1097 889 m 1097 778 l 794 778 l 835 861 l 1097 861 l 1097 778 m 1097 667 l 740 667 l 781 750 l 1097 750 l 1097 667 m 1097 556 l 686 556 l 726 639 l 1097 639 l 1097 556 m 1097 333 l 889 333 l 889 417 l 1097 417 l 1097 333 m 1097 444 l 889 444 l 889 486 l 868 444 l 632 444 l 674 528 l 1097 528 l 1097 444 m 1097 222 l 889 222 l 889 306 l 1097 306 l 1097 222 m 1097 111 l 889 111 l 889 194 l 1097 194 l 1097 111 m 290 889 l 42 889 l 42 972 l 250 972 l 290 889 m 856 417 l 815 333 l 579 333 l 619 417 l 856 417 m 1097 0 l 889 0 l 889 83 l 1097 83 l 1097 0 m 344 778 l 42 778 l 42 861 l 304 861 l 344 778 m 399 667 l 42 667 l 42 750 l 358 750 l 399 667 m 453 556 l 42 556 l 42 639 l 413 639 l 453 556 m 801 306 l 761 222 l 378 222 l 338 306 l 801 306 m 560 333 l 324 333 l 283 417 l 519 417 l 560 333 m 507 444 l 271 444 l 250 486 l 250 444 l 42 444 l 42 528 l 465 528 l 507 444 m 747 194 l 707 111 l 432 111 l 392 194 l 747 194 m 693 83 l 653 0 l 486 0 l 446 83 l 693 83 m 250 333 l 42 333 l 42 417 l 250 417 l 250 333 m 250 222 l 42 222 l 42 306 l 250 306 l 250 222 m 250 111 l 42 111 l 42 194 l 250 194 l 250 111 m 250 0 l 42 0 l 42 83 l 250 83 l 250 0 z "},"n":{"ha":917,"x_min":42,"x_max":875,"o":"m 875 889 l 667 889 l 667 972 l 875 972 l 875 889 m 875 778 l 667 778 l 667 861 l 875 861 l 875 778 m 875 667 l 667 667 l 667 750 l 875 750 l 875 667 m 875 556 l 667 556 l 667 639 l 875 639 l 875 556 m 875 444 l 667 444 l 667 528 l 875 528 l 875 444 m 310 889 l 42 889 l 42 972 l 250 972 l 310 889 m 389 778 l 42 778 l 42 861 l 329 861 l 389 778 m 875 333 l 429 333 l 369 417 l 647 417 l 667 389 l 667 417 l 875 417 l 875 333 m 468 667 l 42 667 l 42 750 l 408 750 l 468 667 m 626 444 l 349 444 l 290 528 l 568 528 l 626 444 m 875 222 l 508 222 l 449 306 l 875 306 l 875 222 m 547 556 l 269 556 l 250 583 l 250 556 l 42 556 l 42 639 l 488 639 l 547 556 m 875 111 l 588 111 l 528 194 l 875 194 l 875 111 m 875 0 l 667 0 l 607 83 l 875 83 l 875 0 m 250 444 l 42 444 l 42 528 l 250 528 l 250 444 m 250 333 l 42 333 l 42 417 l 250 417 l 250 333 m 250 222 l 42 222 l 42 306 l 250 306 l 250 222 m 250 111 l 42 111 l 42 194 l 250 194 l 250 111 m 250 0 l 42 0 l 42 83 l 250 83 l 250 0 z "},"o":{"ha":917,"x_min":42,"x_max":875,"o":"m 875 667 l 667 667 l 667 750 l 875 750 l 875 667 m 864 889 l 53 889 q 181 972 89 972 l 736 972 q 864 889 828 972 m 875 556 l 667 556 l 667 639 l 875 639 l 875 556 m 875 778 l 42 778 l 42 833 q 44 861 42 847 l 872 861 q 875 833 875 847 l 875 778 m 875 444 l 667 444 l 667 528 l 875 528 l 875 444 m 875 333 l 667 333 l 667 417 l 875 417 l 875 333 m 875 222 l 667 222 l 667 306 l 875 306 l 875 222 m 250 667 l 42 667 l 42 750 l 250 750 l 250 667 m 250 556 l 42 556 l 42 639 l 250 639 l 250 556 m 250 444 l 42 444 l 42 528 l 250 528 l 250 444 m 875 139 q 872 111 875 125 l 44 111 q 42 139 42 125 l 42 194 l 875 194 l 875 139 m 250 333 l 42 333 l 42 417 l 250 417 l 250 333 m 864 83 q 736 0 828 0 l 181 0 q 53 83 89 0 l 864 83 m 250 222 l 42 222 l 42 306 l 250 306 l 250 222 z "},"p":{"ha":917,"x_min":42,"x_max":875,"o":"m 875 667 l 667 667 l 667 750 l 875 750 l 875 667 m 864 889 l 42 889 l 42 972 l 736 972 q 864 889 828 972 m 875 778 l 42 778 l 42 861 l 872 861 q 875 833 875 847 l 875 778 m 875 583 q 872 556 875 569 l 42 556 l 42 639 l 875 639 l 875 583 m 864 528 q 736 444 828 444 l 42 444 l 42 528 l 864 528 m 250 667 l 42 667 l 42 750 l 250 750 l 250 667 m 250 333 l 42 333 l 42 417 l 250 417 l 250 333 m 250 222 l 42 222 l 42 306 l 250 306 l 250 222 m 250 111 l 42 111 l 42 194 l 250 194 l 250 111 m 250 0 l 42 0 l 42 83 l 250 83 l 250 0 z "},"q":{"ha":1056,"x_min":42,"x_max":1014,"o":"m 875 667 l 667 667 l 667 750 l 875 750 l 875 667 m 864 889 l 53 889 q 181 972 89 972 l 736 972 q 864 889 828 972 m 875 556 l 667 556 l 667 639 l 875 639 l 875 556 m 875 778 l 42 778 l 42 833 q 44 861 42 847 l 872 861 q 875 833 875 847 l 875 778 m 875 444 l 667 444 l 667 528 l 875 528 l 875 444 m 875 333 l 667 333 l 667 417 l 875 417 l 875 333 m 875 222 l 667 222 l 667 306 l 875 306 l 875 222 m 250 667 l 42 667 l 42 750 l 250 750 l 250 667 m 250 556 l 42 556 l 42 639 l 250 639 l 250 556 m 1014 111 l 44 111 q 42 139 42 125 l 42 194 l 1014 194 l 1014 111 m 250 444 l 42 444 l 42 528 l 250 528 l 250 444 m 1014 0 l 181 0 q 53 83 89 0 l 1014 83 l 1014 0 m 250 333 l 42 333 l 42 417 l 250 417 l 250 333 m 250 222 l 42 222 l 42 306 l 250 306 l 250 222 z "},"r":{"ha":917,"x_min":42,"x_max":875,"o":"m 875 694 q 872 667 875 681 l 667 667 l 667 750 l 875 750 l 875 694 m 864 889 l 42 889 l 42 972 l 736 972 q 864 889 828 972 m 875 778 l 42 778 l 42 861 l 872 861 q 875 833 875 847 l 875 778 m 875 333 l 667 333 l 667 417 l 872 417 q 875 389 875 403 l 875 333 m 864 639 q 736 556 828 556 l 42 556 l 42 639 l 864 639 m 875 222 l 667 222 l 667 306 l 875 306 l 875 222 m 864 444 l 42 444 l 42 528 l 736 528 q 864 444 828 528 m 875 111 l 667 111 l 667 194 l 875 194 l 875 111 m 250 667 l 42 667 l 42 750 l 250 750 l 250 667 m 875 0 l 667 0 l 667 83 l 875 83 l 875 0 m 250 333 l 42 333 l 42 417 l 250 417 l 250 333 m 250 222 l 42 222 l 42 306 l 250 306 l 250 222 m 250 111 l 42 111 l 42 194 l 250 194 l 250 111 m 250 0 l 42 0 l 42 83 l 250 83 l 250 0 z "},"s":{"ha":917,"x_min":42,"x_max":875,"o":"m 875 889 l 53 889 q 181 972 89 972 l 875 972 l 875 889 m 875 778 l 42 778 l 42 833 q 44 861 42 847 l 875 861 l 875 778 m 875 333 l 667 333 l 667 417 l 875 417 l 875 333 m 864 556 l 44 556 q 42 583 42 569 l 42 639 l 736 639 q 864 556 828 639 m 875 222 l 667 222 l 667 306 l 875 306 l 875 222 m 875 444 l 181 444 q 53 528 89 444 l 872 528 q 875 500 875 514 l 875 444 m 250 667 l 42 667 l 42 750 l 250 750 l 250 667 m 875 139 q 872 111 875 125 l 42 111 l 42 194 l 875 194 l 875 139 m 864 83 q 736 0 828 0 l 42 0 l 42 83 l 864 83 z "},"t":{"ha":917,"x_min":42,"x_max":875,"o":"m 875 889 l 42 889 l 42 972 l 875 972 l 875 889 m 875 778 l 42 778 l 42 861 l 875 861 l 875 778 m 576 667 l 368 667 l 368 750 l 576 750 l 576 667 m 576 556 l 368 556 l 368 639 l 576 639 l 576 556 m 576 444 l 368 444 l 368 528 l 576 528 l 576 444 m 576 333 l 368 333 l 368 417 l 576 417 l 576 333 m 576 222 l 368 222 l 368 306 l 576 306 l 576 222 m 576 111 l 368 111 l 368 194 l 576 194 l 576 111 m 576 0 l 368 0 l 368 83 l 576 83 l 576 0 z "},"u":{"ha":917,"x_min":42,"x_max":875,"o":"m 875 889 l 667 889 l 667 972 l 875 972 l 875 889 m 875 778 l 667 778 l 667 861 l 875 861 l 875 778 m 875 667 l 667 667 l 667 750 l 875 750 l 875 667 m 875 556 l 667 556 l 667 639 l 875 639 l 875 556 m 875 444 l 667 444 l 667 528 l 875 528 l 875 444 m 875 333 l 667 333 l 667 417 l 875 417 l 875 333 m 250 889 l 42 889 l 42 972 l 250 972 l 250 889 m 875 222 l 667 222 l 667 306 l 875 306 l 875 222 m 250 778 l 42 778 l 42 861 l 250 861 l 250 778 m 250 667 l 42 667 l 42 750 l 250 750 l 250 667 m 250 556 l 42 556 l 42 639 l 250 639 l 250 556 m 250 444 l 42 444 l 42 528 l 250 528 l 250 444 m 875 139 q 872 111 875 125 l 44 111 q 42 139 42 125 l 42 194 l 875 194 l 875 139 m 250 333 l 42 333 l 42 417 l 250 417 l 250 333 m 864 83 q 736 0 828 0 l 181 0 q 53 83 89 0 l 864 83 m 250 222 l 42 222 l 42 306 l 250 306 l 250 222 z "},"v":{"ha":1042,"x_min":0,"x_max":1042,"o":"m 1042 972 l 1008 889 l 772 889 l 806 972 l 1042 972 m 997 861 l 964 778 l 728 778 l 761 861 l 997 861 m 953 750 l 919 667 l 683 667 l 717 750 l 953 750 m 908 639 l 875 556 l 639 556 l 672 639 l 908 639 m 864 528 l 831 444 l 594 444 l 628 528 l 864 528 m 269 889 l 33 889 l 0 972 l 236 972 l 269 889 m 819 417 l 786 333 l 550 333 l 583 417 l 819 417 m 314 778 l 78 778 l 44 861 l 281 861 l 314 778 m 358 667 l 122 667 l 89 750 l 325 750 l 358 667 m 403 556 l 167 556 l 133 639 l 369 639 l 403 556 m 447 444 l 211 444 l 178 528 l 414 528 l 447 444 m 775 306 l 742 222 l 300 222 l 267 306 l 503 306 l 521 260 l 539 306 l 775 306 m 492 333 l 256 333 l 222 417 l 458 417 l 492 333 m 731 194 l 697 111 l 344 111 l 311 194 l 731 194 m 686 83 l 653 0 l 389 0 l 356 83 l 686 83 z "},"w":{"ha":1458,"x_min":0,"x_max":1458,"o":"m 1458 972 l 1425 889 l 1189 889 l 1222 972 l 1458 972 m 1414 861 l 1381 778 l 1144 778 l 1178 861 l 1414 861 m 1369 750 l 1336 667 l 1100 667 l 1133 750 l 1369 750 m 1042 972 l 1008 889 l 772 889 l 806 972 l 1042 972 m 1325 639 l 1292 556 l 1056 556 l 1089 639 l 1325 639 m 1281 528 l 1247 444 l 1011 444 l 1044 528 l 1281 528 m 997 861 l 964 778 l 494 778 l 461 861 l 697 861 l 729 782 l 761 861 l 997 861 m 686 889 l 450 889 l 417 972 l 653 972 l 686 889 m 1236 417 l 1203 333 l 967 333 l 1000 417 l 1236 417 m 953 750 l 919 667 l 539 667 l 506 750 l 953 750 m 908 639 l 875 556 l 583 556 l 550 639 l 908 639 m 864 444 l 594 444 l 611 486 l 594 528 l 864 528 l 847 486 l 864 444 m 908 333 l 550 333 l 583 417 l 875 417 l 908 333 m 269 889 l 33 889 l 0 972 l 236 972 l 269 889 m 314 778 l 78 778 l 44 861 l 281 861 l 314 778 m 1192 306 l 1158 222 l 300 222 l 267 306 l 503 306 l 521 260 l 539 306 l 919 306 l 938 260 l 956 306 l 1192 306 m 1103 83 l 1069 0 l 806 0 l 772 83 l 1103 83 m 358 667 l 122 667 l 89 750 l 325 750 l 358 667 m 1147 194 l 1114 111 l 761 111 l 729 192 l 697 111 l 344 111 l 311 194 l 1147 194 m 403 556 l 167 556 l 133 639 l 369 639 l 403 556 m 447 444 l 211 444 l 178 528 l 414 528 l 447 444 m 492 333 l 256 333 l 222 417 l 458 417 l 492 333 m 686 83 l 653 0 l 389 0 l 356 83 l 686 83 z "},"x":{"ha":1056,"x_min":42,"x_max":1014,"o":"m 1014 972 l 953 889 l 689 889 l 750 972 l 1014 972 m 933 861 l 872 778 l 608 778 l 669 861 l 933 861 m 851 750 l 792 667 l 264 667 l 204 750 l 468 750 l 528 667 l 588 750 l 851 750 m 367 889 l 103 889 l 42 972 l 306 972 l 367 889 m 771 639 l 710 556 l 346 556 l 285 639 l 771 639 m 447 778 l 183 778 l 122 861 l 386 861 l 447 778 m 690 444 l 365 444 l 396 486 l 365 528 l 690 528 l 660 486 l 690 444 m 933 111 l 669 111 l 608 194 l 872 194 l 933 111 m 771 333 l 285 333 l 346 417 l 710 417 l 771 333 m 1014 0 l 750 0 l 689 83 l 953 83 l 1014 0 m 851 222 l 588 222 l 528 306 l 468 222 l 204 222 l 264 306 l 792 306 l 851 222 m 447 194 l 386 111 l 122 111 l 183 194 l 447 194 m 367 83 l 306 0 l 42 0 l 103 83 l 367 83 z "},"y":{"ha":1056,"x_min":42,"x_max":1014,"o":"m 1014 972 l 953 889 l 689 889 l 750 972 l 1014 972 m 933 861 l 872 778 l 608 778 l 669 861 l 933 861 m 851 750 l 792 667 l 264 667 l 204 750 l 468 750 l 528 667 l 588 750 l 851 750 m 367 889 l 103 889 l 42 972 l 306 972 l 367 889 m 771 639 l 710 556 l 346 556 l 285 639 l 771 639 m 447 778 l 183 778 l 122 861 l 386 861 l 447 778 m 690 528 l 632 444 l 424 444 l 365 528 l 690 528 m 632 333 l 424 333 l 424 417 l 632 417 l 632 333 m 632 222 l 424 222 l 424 306 l 632 306 l 632 222 m 632 111 l 424 111 l 424 194 l 632 194 l 632 111 m 632 0 l 424 0 l 424 83 l 632 83 l 632 0 z "},"z":{"ha":917,"x_min":42,"x_max":875,"o":"m 875 889 l 42 889 l 42 972 l 875 972 l 875 889 m 850 750 l 775 667 l 469 667 l 544 750 l 850 750 m 875 778 l 42 778 l 42 861 l 875 861 l 875 778 m 750 639 l 674 556 l 368 556 l 444 639 l 750 639 m 649 528 l 574 444 l 268 444 l 343 528 l 649 528 m 549 417 l 472 333 l 167 333 l 243 417 l 549 417 m 875 111 l 42 111 l 42 194 l 875 194 l 875 111 m 447 306 l 372 222 l 67 222 l 142 306 l 447 306 m 875 0 l 42 0 l 42 83 l 875 83 l 875 0 z "},"‘":{"ha":292,"x_min":42,"x_max":250,"o":"m 146 889 l 42 889 l 42 972 l 146 972 l 146 889 m 250 778 l 42 778 l 42 861 l 250 861 l 250 778 m 250 667 l 42 667 l 42 750 l 250 750 l 250 667 z "},"’":{"ha":292,"x_min":42,"x_max":250,"o":"m 250 889 l 42 889 l 42 972 l 250 972 l 250 889 m 250 778 l 42 778 l 42 861 l 250 861 l 250 778 m 250 667 l 146 667 l 146 750 l 250 750 l 250 667 z "},"‚":{"ha":292,"x_min":42,"x_max":250,"o":"m 250 111 l 42 111 l 42 194 l 250 194 l 250 111 m 250 0 l 42 0 l 42 83 l 250 83 l 250 0 m 250 -111 l 146 -111 l 146 -28 l 250 -28 l 250 -111 z "},"‛":{"ha":292,"x_min":42,"x_max":250,"o":"m 250 889 l 42 889 l 42 972 l 250 972 l 250 889 m 250 778 l 42 778 l 42 861 l 250 861 l 250 778 m 146 667 l 42 667 l 42 750 l 146 750 l 146 667 z "},"“":{"ha":556,"x_min":42,"x_max":514,"o":"m 410 889 l 306 889 l 306 972 l 410 972 l 410 889 m 514 778 l 306 778 l 306 861 l 514 861 l 514 778 m 514 667 l 306 667 l 306 750 l 514 750 l 514 667 m 146 889 l 42 889 l 42 972 l 146 972 l 146 889 m 250 778 l 42 778 l 42 861 l 250 861 l 250 778 m 250 667 l 42 667 l 42 750 l 250 750 l 250 667 z "},"”":{"ha":556,"x_min":42,"x_max":514,"o":"m 514 889 l 306 889 l 306 972 l 514 972 l 514 889 m 514 778 l 306 778 l 306 861 l 514 861 l 514 778 m 514 667 l 410 667 l 410 750 l 514 750 l 514 667 m 250 889 l 42 889 l 42 972 l 250 972 l 250 889 m 250 778 l 42 778 l 42 861 l 250 861 l 250 778 m 250 667 l 146 667 l 146 750 l 250 750 l 250 667 z "},"„":{"ha":556,"x_min":42,"x_max":514,"o":"m 514 111 l 306 111 l 306 194 l 514 194 l 514 111 m 514 0 l 306 0 l 306 83 l 514 83 l 514 0 m 514 -111 l 410 -111 l 410 -28 l 514 -28 l 514 -111 m 250 111 l 42 111 l 42 194 l 250 194 l 250 111 m 250 0 l 42 0 l 42 83 l 250 83 l 250 0 m 250 -111 l 146 -111 l 146 -28 l 250 -28 l 250 -111 z "}}}
